<?xml version="1.0" standalone="no"?>
<!DOCTYPE svg PUBLIC "-//W3C//DTD SVG 20010904//EN"
 "http://www.w3.org/TR/2001/REC-SVG-20010904/DTD/svg10.dtd">
<svg version="1.0" xmlns="http://www.w3.org/2000/svg"
 width="1024.000000pt" height="1024.000000pt" viewBox="0 0 1024.000000 1024.000000"
 preserveAspectRatio="xMidYMid meet">

<g transform="translate(0.000000,1024.000000) scale(0.100000,-0.100000)"
fill="#2D6CDF" stroke="none">
<path d="M3571 7894 c-107 -29 -205 -101 -256 -189 -57 -96 -55 -54 -55 -1385
l0 -1225 -227 227 c-126 124 -239 231 -252 238 -33 17 -86 4 -111 -27 -20 -25
-20 -36 -20 -647 0 -703 1 -708 80 -870 61 -124 118 -191 382 -451 133 -132
430 -424 658 -650 442 -437 510 -494 690 -585 188 -95 367 -139 595 -147 271
-9 495 39 725 158 186 95 252 154 948 845 360 356 674 674 698 705 65 85 122
210 144 320 18 87 20 139 20 679 0 537 -1 588 -18 620 -23 47 -58 65 -108 56
-34 -7 -68 -36 -269 -237 -127 -126 -233 -229 -237 -229 -3 0 -6 307 -7 682
-1 455 -5 697 -13 728 -29 121 -37 130 -647 742 -612 612 -609 610 -738 643
-84 22 -1900 21 -1982 -1z m1849 -847 c0 -241 4 -416 11 -452 22 -119 87 -201
198 -254 l56 -26 418 -3 417 -3 0 -792 0 -793 -617 -615 c-693 -692 -648 -654
-798 -654 -140 1 -119 -16 -808 673 l-607 607 0 1346 c0 740 3 1349 7 1352 3
4 393 7 865 7 l858 0 0 -393z m818 -319 c2 -5 -93 -8 -212 -8 l-216 0 0 217 0
217 212 -209 c117 -116 214 -213 216 -217z m907 -2487 c-16 -54 -28 -68 -323
-362 -728 -725 -1028 -1015 -1105 -1067 -401 -275 -940 -246 -1293 68 -142
127 -1307 1299 -1327 1335 -20 37 -22 58 -27 283 -3 133 -3 242 0 242 2 0 365
-359 805 -798 866 -864 845 -845 1010 -899 58 -18 110 -27 188 -31 121 -5 199
7 297 45 146 58 163 73 995 904 l790 789 3 -227 c2 -183 -1 -237 -13 -282z"/>
<path d="M4210 5852 c-66 -66 -61 -158 12 -202 32 -20 48 -20 888 -20 810 0
857 1 890 18 88 46 92 171 7 222 -31 19 -57 20 -896 20 l-863 0 -38 -38z"/>
<path d="M4243 5251 c-89 -41 -104 -152 -28 -221 l27 -25 619 -3 c684 -3 670
-4 709 60 42 69 14 154 -63 188 -40 19 -72 20 -632 20 -558 0 -592 -1 -632
-19z"/>
</g>
</svg>
